<?xml version="1.0" encoding="UTF-8" standalone="no"?>
<!-- Created with Bouml (http://bouml.free.fr/) -->
<!DOCTYPE svg PUBLIC "-//W3C//DTD SVG 1.1//EN" "http://www.w3.org/Graphics/SVG/1.1/DTD/svg11.dtd">
<svg width="508" height="441" version="1.1" xmlns="http://www.w3.org/2000/svg">
<g>
	<rect fill="none" stroke="black" stroke-width="1" stroke-opacity="1" x="94" y="69" width="160" height="16" />
	<text font-family="MS Shell Dlg" font-size="10" fill="#000000" xml:space="preserve" text-anchor="middle" x="174" y="83">wwwjgrib</text>
	<rect fill="none" stroke="black" stroke-width="1" stroke-opacity="1" x="94" y="85" width="402" height="344" />
</g>
<g>
	<rect fill="none" stroke="black" stroke-width="1" stroke-opacity="1" x="131" y="126" width="25" height="16" />
	<rect fill="none" stroke="black" stroke-width="1" stroke-opacity="1" x="131" y="142" width="64" height="48" />
	<text font-family="MS Shell Dlg" font-size="10" fill="#000000" xml:space="preserve" text-anchor="middle" x="163" y="156">controller</text>
</g>
<g>
	<rect fill="none" stroke="black" stroke-width="1" stroke-opacity="1" x="132" y="319" width="25" height="16" />
	<rect fill="none" stroke="black" stroke-width="1" stroke-opacity="1" x="132" y="335" width="64" height="48" />
	<text font-family="MS Shell Dlg" font-size="10" fill="#000000" xml:space="preserve" text-anchor="middle" x="164" y="349">model</text>
</g>
<g>
	<rect fill="none" stroke="black" stroke-width="1" stroke-opacity="1" x="383" y="128" width="25" height="16" />
	<rect fill="none" stroke="black" stroke-width="1" stroke-opacity="1" x="383" y="144" width="64" height="48" />
	<text font-family="MS Shell Dlg" font-size="10" fill="#000000" xml:space="preserve" text-anchor="middle" x="415" y="158">main</text>
</g>
<g>
	<rect fill="none" stroke="black" stroke-width="1" stroke-opacity="1" x="383" y="320" width="25" height="16" />
	<rect fill="none" stroke="black" stroke-width="1" stroke-opacity="1" x="383" y="336" width="64" height="48" />
	<text font-family="MS Shell Dlg" font-size="10" fill="#000000" xml:space="preserve" text-anchor="middle" x="415" y="350">view</text>
</g>
<g>
	<line stroke="black" stroke-opacity="1" x1="415" y1="319" x2="421" y2="313" />
	<line stroke="black" stroke-opacity="1" x1="415" y1="319" x2="409" y2="313" />
	<line stroke-dasharray="4,4" stroke="black" stroke-opacity="1" x1="415" y1="192" x2="415" y2="319" />
</g>
<g>
	<line stroke="black" stroke-opacity="1" x1="196" y1="351" x2="202" y2="357" />
	<line stroke="black" stroke-opacity="1" x1="196" y1="351" x2="202" y2="345" />
	<line stroke-dasharray="4,4" stroke="black" stroke-opacity="1" x1="382" y1="351" x2="196" y2="351" />
</g>
<g>
	<line stroke="black" stroke-opacity="1" x1="382" y1="326" x2="380" y2="317" />
	<line stroke="black" stroke-opacity="1" x1="382" y1="326" x2="373" y2="327" />
	<line stroke-dasharray="4,4" stroke="black" stroke-opacity="1" x1="195" y1="182" x2="382" y2="326" />
</g>
<g>
	<line stroke-dasharray="4,4" stroke="black" stroke-opacity="1" x1="382" y1="339" x2="247" y2="290" />
</g>
<g>
	<line stroke-dasharray="4,4" stroke="black" stroke-opacity="1" x1="196" y1="360" x2="292" y2="389" />
</g>
<g>
	<line stroke="black" stroke-opacity="1" x1="163" y1="318" x2="169" y2="312" />
	<line stroke="black" stroke-opacity="1" x1="163" y1="318" x2="157" y2="312" />
	<line stroke-dasharray="4,4" stroke="black" stroke-opacity="1" x1="163" y1="190" x2="163" y2="318" />
</g>
<g>
	<line stroke="black" stroke-opacity="1" x1="183" y1="190" x2="181" y2="198" />
	<line stroke="black" stroke-opacity="1" x1="183" y1="190" x2="191" y2="191" />
	<line stroke-dasharray="4,4" stroke="black" stroke-opacity="1" x1="247" y1="290" x2="183" y2="190" />
</g>
<g>
	<line stroke="black" stroke-opacity="1" x1="382" y1="361" x2="374" y2="357" />
	<line stroke="black" stroke-opacity="1" x1="382" y1="361" x2="378" y2="368" />
	<line stroke-dasharray="4,4" stroke="black" stroke-opacity="1" x1="292" y1="389" x2="382" y2="361" />
</g>
</svg>
