<?xml version="1.0" encoding="UTF-8" standalone="no"?>
<!-- Created with Bouml (http://bouml.free.fr/) -->
<!DOCTYPE svg PUBLIC "-//W3C//DTD SVG 1.1//EN" "http://www.w3.org/Graphics/SVG/1.1/DTD/svg11.dtd">
<svg width="1060" height="568" version="1.1" xmlns="http://www.w3.org/2000/svg">
<g>
	<ellipse fill="none" stroke="black" stroke-width="1" stroke-opacity="1" cx="73" cy="27" rx="3" ry="3" />
	<line stroke="black" stroke-opacity="1" x1="68" y1="33" x2="79" y2="33" />
	<line stroke="black" stroke-opacity="1" x1="73" y1="30" x2="73" y2="38" />
	<line stroke="black" stroke-opacity="1" x1="73" y1="38" x2="68" y2="43" />
	<line stroke="black" stroke-opacity="1" x1="73" y1="38" x2="78" y2="43" />
	<text font-family="MS Shell Dlg" font-size="10" fill="#000000" xml:space="preserve" text-anchor="middle" x="74" y="58">:Viewer</text>
</g>
<g>
	<line stroke="black" stroke-dasharray="18,6"  stroke-opacity="1" x1="74" y1="65" x2="74" y2="568" />
</g>
<g>
	<rect fill="#808080" stroke="none" stroke-opacity="1" x="293" y="31" width="3" height="19" />
	<rect fill="#808080" stroke="none" stroke-opacity="1" x="252" y="47" width="44" height="3" />
	<rect fill="#ffffc0" stroke="black" stroke-width="1" stroke-opacity="1" x="248" y="27" width="45" height="20" />
	<text font-family="MS Shell Dlg" font-size="10" fill="#000000" xml:space="preserve" text-decoration="underline" text-anchor="middle" x="271" y="43">:Main</text>
</g>
<g>
	<line stroke="black" stroke-dasharray="18,6"  stroke-opacity="1" x1="272" y1="68" x2="272" y2="568" />
</g>
<g>
	<rect fill="#808080" stroke="none" stroke-opacity="1" x="512" y="32" width="3" height="19" />
	<rect fill="#808080" stroke="none" stroke-opacity="1" x="462" y="48" width="53" height="3" />
	<rect fill="#ffffc0" stroke="black" stroke-width="1" stroke-opacity="1" x="458" y="28" width="54" height="20" />
	<text font-family="MS Shell Dlg" font-size="10" fill="#000000" xml:space="preserve" text-decoration="underline" text-anchor="middle" x="485" y="44">:Controller</text>
</g>
<g>
	<line stroke="black" stroke-dasharray="18,6"  stroke-opacity="1" x1="487" y1="69" x2="487" y2="568" />
</g>
<g>
	<rect fill="#808080" stroke="none" stroke-opacity="1" x="781" y="28" width="3" height="19" />
	<rect fill="#808080" stroke="none" stroke-opacity="1" x="729" y="44" width="55" height="3" />
	<rect fill="#ffffc0" stroke="black" stroke-width="1" stroke-opacity="1" x="725" y="24" width="56" height="20" />
	<text font-family="MS Shell Dlg" font-size="10" fill="#000000" xml:space="preserve" text-decoration="underline" text-anchor="middle" x="753" y="40">:Navigator</text>
</g>
<g>
	<line stroke="black" stroke-dasharray="18,6"  stroke-opacity="1" x1="755" y1="65" x2="755" y2="568" />
</g>
<g>
	<rect fill="#808080" stroke="none" stroke-opacity="1" x="896" y="28" width="3" height="19" />
	<rect fill="#808080" stroke="none" stroke-opacity="1" x="842" y="44" width="57" height="3" />
	<rect fill="#ffffc0" stroke="black" stroke-width="1" stroke-opacity="1" x="838" y="24" width="58" height="20" />
	<text font-family="MS Shell Dlg" font-size="10" fill="#000000" xml:space="preserve" text-decoration="underline" text-anchor="middle" x="867" y="40">:MapPanel</text>
</g>
<g>
	<line stroke="black" stroke-dasharray="18,6"  stroke-opacity="1" x1="869" y1="65" x2="869" y2="568" />
</g>
<g>
	<rect fill="#808080" stroke="none" stroke-opacity="1" x="402" y="32" width="3" height="19" />
	<rect fill="#808080" stroke="none" stroke-opacity="1" x="345" y="48" width="60" height="3" />
	<rect fill="#ffffc0" stroke="black" stroke-width="1" stroke-opacity="1" x="341" y="28" width="61" height="20" />
	<text font-family="MS Shell Dlg" font-size="10" fill="#000000" xml:space="preserve" text-decoration="underline" text-anchor="middle" x="372" y="44">:WindLayer</text>
</g>
<g>
	<line stroke="black" stroke-dasharray="18,6"  stroke-opacity="1" x1="373" y1="69" x2="373" y2="568" />
</g>
<g>
	<rect fill="#808080" stroke="none" stroke-opacity="1" x="729" y="335" width="3" height="19" />
	<rect fill="#808080" stroke="none" stroke-opacity="1" x="642" y="351" width="90" height="3" />
	<rect fill="#ffffc0" stroke="black" stroke-width="1" stroke-opacity="1" x="638" y="331" width="91" height="20" />
	<text font-family="MS Shell Dlg" font-size="10" fill="#000000" xml:space="preserve" text-decoration="underline" text-anchor="middle" x="684" y="347">:RenderableLayer</text>
</g>
<g>
	<line stroke="black" stroke-dasharray="18,6"  stroke-opacity="1" x1="685" y1="372" x2="685" y2="568" />
</g>
<g>
	<rect fill="#808080" stroke="none" stroke-opacity="1" x="695" y="29" width="3" height="19" />
	<rect fill="#808080" stroke="none" stroke-opacity="1" x="558" y="45" width="140" height="3" />
	<rect fill="#ffffc0" stroke="black" stroke-width="1" stroke-opacity="1" x="554" y="25" width="141" height="20" />
	<text font-family="MS Shell Dlg" font-size="10" fill="#000000" xml:space="preserve" text-decoration="underline" text-anchor="middle" x="625" y="41">:ApplicationEventDispatcher</text>
</g>
<g>
	<line stroke="black" stroke-dasharray="18,6"  stroke-opacity="1" x1="626" y1="66" x2="626" y2="568" />
</g>
<g>
	<rect fill="#808080" stroke="none" stroke-opacity="1" x="1044" y="26" width="3" height="19" />
	<rect fill="#808080" stroke="none" stroke-opacity="1" x="975" y="42" width="72" height="3" />
	<rect fill="#ffffc0" stroke="black" stroke-width="1" stroke-opacity="1" x="971" y="22" width="73" height="20" />
	<text font-family="MS Shell Dlg" font-size="10" fill="#000000" xml:space="preserve" text-decoration="underline" text-anchor="middle" x="1008" y="38">:MapGraphics</text>
</g>
<g>
	<line stroke="black" stroke-dasharray="18,6"  stroke-opacity="1" x1="1009" y1="63" x2="1009" y2="568" />
</g>
<g>
	<rect fill="none" stroke="black" stroke-width="1" stroke-opacity="1" x="69" y="123" width="10" height="39" />
</g>
<g>
	<rect fill="none" stroke="black" stroke-width="1" stroke-opacity="1" x="267" y="123" width="10" height="433" />
</g>
<g>
	<rect fill="none" stroke="black" stroke-width="1" stroke-opacity="1" x="482" y="127" width="10" height="424" />
</g>
<g>
	<rect fill="none" stroke="black" stroke-width="1" stroke-opacity="1" x="750" y="392" width="10" height="54" />
</g>
<g>
	<rect fill="none" stroke="black" stroke-width="1" stroke-opacity="1" x="864" y="427" width="10" height="69" />
</g>
<g>
	<rect fill="none" stroke="black" stroke-width="1" stroke-opacity="1" x="368" y="125" width="10" height="429" />
</g>
<g>
	<rect fill="none" stroke="black" stroke-width="1" stroke-opacity="1" x="680" y="516" width="10" height="31" />
</g>
<g>
	<rect fill="none" stroke="black" stroke-width="1" stroke-opacity="1" x="69" y="224" width="10" height="39" />
</g>
<g>
	<rect fill="none" stroke="black" stroke-width="1" stroke-opacity="1" x="621" y="181" width="10" height="24" />
</g>
<g>
	<rect fill="none" stroke="black" stroke-width="1" stroke-opacity="1" x="1004" y="460" width="10" height="31" />
</g>
<g>
	<line stroke="black" stroke-opacity="1" x1="493" y1="397" x2="750" y2="397" />
	<polygon fill="#000000" stroke="none" points="750,397 746,393 746,401" />
</g>
<g>
	<line stroke="black" stroke-opacity="1" x1="80" y1="128" x2="267" y2="128" />
	<path fill="none" stroke="black" stroke-opacity="1" d="M 263 124 L 267 128 L 263 132" />
</g>
<g>
	<line stroke="black" stroke-opacity="1" stroke-dasharray="4,4" x1="278" y1="132" x2="368" y2="132" />
	<path fill="none" stroke="black" stroke-opacity="1" d="M 364 128 L 368 132 L 364 136" />
</g>
<g>
	<line stroke="black" stroke-opacity="1" x1="379" y1="521" x2="680" y2="521" />
	<polygon fill="#000000" stroke="none" points="680,521 676,517 676,525" />
</g>
<g>
	<line stroke="black" stroke-opacity="1" stroke-dasharray="4,4" x1="278" y1="161" x2="482" y2="161" />
	<path fill="none" stroke="black" stroke-opacity="1" d="M 478 157 L 482 161 L 478 165" />
</g>
<g>
	<line stroke="black" stroke-opacity="1" x1="875" y1="465" x2="1004" y2="465" />
	<polygon fill="#000000" stroke="none" points="1004,465 1000,461 1000,469" />
</g>
<g>
	<line stroke="black" stroke-opacity="1" stroke-dasharray="4,4" x1="278" y1="186" x2="621" y2="186" />
	<path fill="none" stroke="black" stroke-opacity="1" d="M 617 182 L 621 186 L 617 190" />
</g>
<g>
	<rect fill="none" stroke="black" stroke-width="1" stroke-opacity="1" x="273" y="224" width="10" height="25" />
</g>
<g>
	<rect fill="none" stroke="black" stroke-width="1" stroke-opacity="1" x="488" y="239" width="10" height="25" />
</g>
<g>
	<rect fill="none" stroke="black" stroke-width="1" stroke-opacity="1" x="374" y="448" width="10" height="44" />
</g>
<g>
	<line stroke="black" stroke-opacity="1" x1="761" y1="434" x2="864" y2="434" />
	<polygon fill="#000000" stroke="none" points="864,434 860,430 860,438" />
</g>
<g>
	<line stroke="black" stroke-opacity="1" x1="385" y1="487" x2="864" y2="487" />
	<polygon fill="#000000" stroke="none" points="385,487 389,483 389,491" />
</g>
<g>
	<line stroke="black" stroke-opacity="1" x1="80" y1="229" x2="273" y2="229" />
	<path fill="none" stroke="black" stroke-opacity="1" d="M 269 225 L 273 229 L 269 233" />
</g>
<g>
	<line stroke="black" stroke-opacity="1" x1="284" y1="244" x2="488" y2="244" />
	<polygon fill="#000000" stroke="none" points="488,244 484,240 484,248" />
</g>
<g>
	<line stroke="black" stroke-opacity="1" stroke-dasharray="4,4" x1="875" y1="486" x2="1004" y2="486" />
	<path fill="none" stroke="black" stroke-opacity="1" d="M 879 482 L 875 486 L 879 490" />
</g>
<g>
	<text font-family="MS Shell Dlg" font-size="10" fill="#000000" xml:space="preserve" x="895" y="460">drawWindBarb()</text>
</g>
<g>
	<text font-family="MS Shell Dlg" font-size="10" fill="#000000" xml:space="preserve" x="124" y="123">Lancement de WWJGrib</text>
</g>
<g>
	<text font-family="MS Shell Dlg" font-size="10" fill="#000000" xml:space="preserve" x="562" y="390">addGribFile()</text>
</g>
<g>
	<text font-family="MS Shell Dlg" font-size="10" fill="#000000" xml:space="preserve" x="776" y="428">drawWindBarbs()</text>
</g>
<g>
	<text font-family="MS Shell Dlg" font-size="10" fill="#000000" xml:space="preserve" x="296" y="127">&lt;&lt;create&gt;&gt;</text>
</g>
<g>
	<text font-family="MS Shell Dlg" font-size="10" fill="#000000" xml:space="preserve" x="581" y="480">windFieldValueChanged()</text>
</g>
<g>
	<text font-family="MS Shell Dlg" font-size="10" fill="#000000" xml:space="preserve" x="497" y="517">doRender()</text>
</g>
<g>
	<text font-family="MS Shell Dlg" font-size="10" fill="#000000" xml:space="preserve" x="366" y="157">&lt;&lt;create&gt;&gt;</text>
</g>
<g>
	<text font-family="MS Shell Dlg" font-size="10" fill="#000000" xml:space="preserve" x="128" y="226">Sélection du fichier .grb</text>
</g>
<g>
	<text font-family="MS Shell Dlg" font-size="10" fill="#000000" xml:space="preserve" x="346" y="240">openGribFile()</text>
</g>
<g>
	<text font-family="MS Shell Dlg" font-size="10" fill="#000000" xml:space="preserve" x="422" y="181">&lt;&lt;create&gt;&gt;</text>
</g>
<g>
	<polygon fill="#ffffff" stroke="black" stroke-opacity="1" points="857,387 957,387 957,396 948,405 857,405 857,387" />
	<rect fill="none" stroke="black" stroke-width="1" stroke-opacity="1" x="857" y="387" width="180" height="143" />
	<text font-family="MS Shell Dlg" font-size="10" fill="#000000" xml:space="preserve" text-anchor="middle" x="903" y="402">loop i = 0; nbWind</text>
	<line stroke="black" stroke-opacity="1" x1="857" y1="405" x2="948" y2="405" />
	<line stroke="black" stroke-opacity="1" x1="948" y1="405" x2="957" y2="396" />
	<line stroke="black" stroke-opacity="1" x1="957" y1="396" x2="957" y2="387" />
</g>
</svg>
